<svg viewBox="0 0 512 512" xmlns="http://www.w3.org/2000/svg"><path d="m511.914062 256c0-141.386719-114.59375-256-255.957031-256-141.359375 0-255.957031 114.613281-255.957031 256s114.597656 256 255.957031 256c141.363281 0 255.957031-114.613281 255.957031-256zm0 0" fill="#2980FF"/><path d="m420.035156 59.527344c33.199219 43.175781 52.953125 97.234375 52.953125 155.910156 0 141.386719-114.597656 256-255.957031 256-62.441406 0-119.652344-22.371094-164.078125-59.527344 46.792969 60.859375 120.3125 100.089844 203.003906 100.089844 141.363281 0 255.957031-114.613281 255.957031-256 0-78.933594-35.726562-149.511719-91.878906-196.472656zm0 0" fill="#2980FF"/><path d="m369.839844 177.828125h-41.277344c-8.878906 0-16.699219-5.839844-19.222656-14.351563l-.523438-1.769531c-3.582031-12.074219-14.671875-20.355469-27.265625-20.355469h-51.308593c-12.667969 0-23.808594 8.378907-27.324219 20.550782l-.414063 1.4375c-2.476562 8.582031-10.332031 14.488281-19.261718 14.488281h-41.167969c-10.300781 0-18.648438 8.351563-18.648438 18.652344v148.265625c0 10.300781 8.347657 18.652344 18.648438 18.652344h227.765625c10.300781 0 18.652344-8.351563 18.652344-18.652344v-148.265625c0-10.300781-8.351563-18.652344-18.652344-18.652344zm0 0" fill="#ffffff"/><path d="m369.839844 177.828125h-41.277344c-8.878906 0-16.699219-5.839844-19.222656-14.351563l-.523438-1.769531c-3.582031-12.074219-14.671875-20.355469-27.265625-20.355469h-25.59375c12.59375 0 23.683594 8.28125 27.265625 20.355469l.523438 1.769531c2.523437 8.511719 10.34375 14.351563 19.222656 14.351563h37.1875c10.304688 0 18.652344 8.351563 18.652344 18.652344v148.265625c0 10.300781-8.347656 18.652344-18.652344 18.652344h29.683594c10.300781 0 18.652344-8.351563 18.652344-18.652344v-148.265625c0-10.300781-8.351563-18.652344-18.652344-18.652344zm0 0" fill="#ffffff"/><path d="m313.4375 266.28125c0-29.632812-24.019531-53.652344-53.644531-53.652344s-53.644531 24.019532-53.644531 53.652344 24.019531 53.652344 53.644531 53.652344 53.644531-24.019532 53.644531-53.652344zm0 0" fill="#2980FF"/><path d="m295.304688 266.28125c0-19.613281-15.898438-35.515625-35.511719-35.515625s-35.511719 15.902344-35.511719 35.515625c0 19.617188 15.898438 35.515625 35.511719 35.515625s35.511719-15.898437 35.511719-35.515625zm0 0" fill="#2980FF"/><path d="m366.574219 207.671875c0 4.289063-3.476563 7.765625-7.765625 7.765625-4.289063 0-7.765625-3.476562-7.765625-7.765625s3.476562-7.765625 7.765625-7.765625c4.289062 0 7.765625 3.476562 7.765625 7.765625zm0 0" fill="#2980FF"/></svg>